<svg id="Capa_1" enable-background="new 0 0 511.975 511.975" height="512" viewBox="0 0 511.975 511.975" width="512" xmlns="http://www.w3.org/2000/svg"><g><g><path d="m125.685 397.595h260.232v39h-260.232z" fill="#3f6d8e"/><path d="m125.685 400.595h44.018v39h-44.018z" fill="#365e7d"/><path d="m478.473 45.26h-445.344c-14.199 0-25.816 11.617-25.816 25.816v305.619c0 14.199 11.617 25.816 25.816 25.816h445.343c14.199 0 25.816-11.617 25.816-25.816v-305.619c0-14.199-11.617-25.816-25.815-25.816z" fill="#477b9e"/><path d="m51.331 376.695v-305.619c0-14.199 11.617-25.816 25.816-25.816h-44.018c-14.199 0-25.816 11.617-25.816 25.816v305.619c0 14.199 11.617 25.816 25.816 25.816h44.018c-14.198 0-25.816-11.618-25.816-25.816z" fill="#3f6d8e"/><path d="m419.88 434.267h-328.158c-4.223 0-7.647 3.424-7.647 7.647v16.463c0 4.223 3.424 7.647 7.647 7.647h328.158c4.223 0 7.647-3.424 7.647-7.647v-16.463c-.001-4.223-3.424-7.647-7.647-7.647z" fill="#477b9e"/><path d="m128.093 458.378v-16.463c0-4.223 3.424-7.647 7.647-7.647h-44.018c-4.223 0-7.647 3.424-7.647 7.647v16.463c0 4.223 3.423 7.647 7.647 7.647h44.018c-4.223-.001-7.647-3.424-7.647-7.647z" fill="#3f6d8e"/><path d="m466.235 77.017h-420.868c-3.478 0-6.297 2.819-6.297 6.297v281.143c0 3.478 2.819 6.297 6.297 6.297h420.868c3.477 0 6.297-2.819 6.297-6.297v-281.143c-.001-3.478-2.82-6.297-6.297-6.297z" fill="#7fb3fa"/><path d="m83.088 364.457v-281.143c0-3.477 2.819-6.297 6.297-6.297h-44.018c-3.478 0-6.296 2.819-6.296 6.297v281.143c0 3.477 2.819 6.297 6.296 6.297h44.018c-3.478 0-6.297-2.819-6.297-6.297z" fill="#64a6f4"/><path d="m377.337 134.612h-27.088v178.546h27.088c4.008 0 7.257-3.249 7.257-7.257v-164.032c0-4.007-3.249-7.257-7.257-7.257z" fill="#477b9e"/><path d="m127.008 141.869v164.032c0 4.008 3.249 7.257 7.257 7.257h27.088v-178.546h-27.088c-4.008 0-7.257 3.25-7.257 7.257z" fill="#477b9e"/><path d="m160.316 134.613h190.808v178.546h-190.808z" fill="#f87c68"/><path d="m160.316 134.613h25.5v178.546h-25.5z" fill="#ec625e"/><path d="m280.978 218.075-43.203-26.585c-4.546-2.797-10.399.473-10.399 5.811v53.171c0 5.337 5.853 8.608 10.399 5.811l43.203-26.585c4.33-2.666 4.33-8.959 0-11.623z" fill="#dbedff"/><path d="m252.877 200.782-15.101-9.293c-4.546-2.797-10.399.473-10.399 5.811v53.171c0 5.337 5.853 8.608 10.399 5.811l15.101-9.293z" fill="#b5dcff"/></g><g><path d="m134.451 127.458c-8.137 0-14.757 6.62-14.757 14.757v164.032c0 8.137 6.62 14.757 14.757 14.757h243.072c8.137 0 14.757-6.62 14.757-14.757v-164.033c0-8.137-6.62-14.757-14.757-14.757-8.485.001-233.4.001-243.072.001zm223.485 86.218h19.345v21.108h-19.345zm19.344-15h-19.345v-21.109h19.345zm-19.344 51.109h19.345v21.109h-19.345zm19.344-87.218h-19.345v-20.109h19.345zm-242.586 51.109h19.345v21.108h-19.345zm19.345-15h-19.345v-21.109h19.345zm-19.345 51.109h19.345v21.109h-19.345zm19.345-107.327v20.109h-19.345v-20.109zm-19.345 143.436h19.345v20.109h-19.345zm34.345-143.436h173.896v163.546h-173.896zm188.897 163.545v-20.109h19.345v20.109z"/><path d="m285.094 212.032-43.201-26.585c-9.523-5.86-21.83 1.009-21.83 12.198v53.171c0 11.266 12.383 18.013 21.83 12.198l43.201-26.585c9.1-5.597 9.082-18.811 0-24.397zm-50.032 37.572v-50.747l41.234 25.374z"/><path d="m511.975 71.421c0-18.371-14.945-33.316-33.315-33.316h-199.96c-4.143 0-7.5 3.358-7.5 7.5s3.357 7.5 7.5 7.5h199.96c10.1 0 18.315 8.217 18.315 18.316v305.619c0 10.1-8.216 18.316-18.315 18.316-6.902 0-438.392 0-445.344 0-10.1 0-18.315-8.217-18.315-18.316v-305.619c0-10.1 8.216-18.316 18.315-18.316h210.384c4.143 0 7.5-3.358 7.5-7.5s-3.357-7.5-7.5-7.5h-210.385c-18.37 0-33.315 14.946-33.315 33.316v305.619c0 18.371 14.945 33.316 33.315 33.316h85.056v16.757h-26.463c-8.352 0-15.146 6.795-15.146 15.146v16.463c0 8.353 6.795 15.147 15.146 15.147h328.158c8.352 0 15.146-6.795 15.146-15.147v-16.463c0-8.352-6.795-15.146-15.146-15.146h-26.463v-16.757h85.056c18.37 0 33.315-14.945 33.315-33.316v-305.619zm-91.762 370.838v16.463c0 .081-.065.147-.146.147h-328.159c-.081 0-.146-.066-.146-.147v-16.463c0-.081.065-.146.146-.146h328.158c.081 0 .147.065.147.146zm-41.609-15.146h-245.233v-16.757h245.232v16.757z"/><path d="m472.718 214.231c4.143 0 7.5-3.357 7.5-7.5v-123.072c0-7.607-6.189-13.797-13.797-13.797h-420.867c-7.607 0-13.797 6.189-13.797 13.797v281.143c0 7.607 6.189 13.797 13.797 13.797h420.867c7.607 0 13.797-6.189 13.797-13.797v-123.071c0-4.143-3.357-7.5-7.5-7.5s-7.5 3.357-7.5 7.5v121.868h-418.461v-278.737h418.461v121.869c0 4.143 3.357 7.5 7.5 7.5z"/></g></g></svg>